<svg width="260" height="260" viewBox="0 0 260 260" fill="none" xmlns="http://www.w3.org/2000/svg">
<g clip-path="url(#clip0_118_145)">
<path d="M130 0C147.604 0 164.383 3.51237 179.723 9.86003L179.956 9.96582C195.762 16.5462 210.002 26.1735 221.914 38.1071C233.89 50.0619 243.538 64.3864 250.14 80.319C256.509 95.638 260 112.438 260 130.021C260 147.625 256.488 164.404 250.14 179.744L250.034 179.977C243.433 195.783 233.827 210.023 221.893 221.935C209.938 233.911 195.614 243.56 179.681 250.161C164.362 256.53 147.562 260.021 129.979 260.021C112.396 260.021 95.5957 256.509 80.2555 250.161L80.0228 250.055C64.2171 243.475 49.9772 233.848 38.0648 221.935L38.0859 221.893C26.11 209.917 16.4616 195.614 9.86003 179.723C3.51237 164.383 0 147.604 0 130C0 112.396 3.51237 95.6169 9.86003 80.2767L9.96582 80.044C16.5462 64.2383 26.1735 49.9984 38.0859 38.0859H38.1071C50.083 26.11 64.3864 16.4616 80.2979 9.86003C95.6169 3.51237 112.396 0 130 0ZM35.9489 199.888L36.4567 199.591C48.9404 192.63 81.4404 190.324 94.9398 180.908C95.9342 179.427 96.9922 177.269 98.029 174.92C99.5736 171.387 100.991 167.515 101.88 164.891C98.1136 160.448 94.8763 155.433 91.7871 150.503L81.5674 134.232C77.8434 128.646 75.8968 123.568 75.7699 119.378C75.7064 117.41 76.0449 115.633 76.7855 114.046C77.5472 112.396 78.7109 111.021 80.2979 109.963C81.0384 109.455 81.8636 109.032 82.7734 108.714C82.0964 99.891 81.8636 88.7826 82.2868 79.4727C82.4984 77.2721 82.9427 75.0505 83.5352 72.8499C86.1589 63.5189 92.6969 56.0075 100.801 50.8447C105.265 47.9883 110.174 45.8512 115.273 44.4124C118.532 43.4814 112.502 33.1136 115.866 32.7539C132.095 31.0824 158.353 45.9147 169.694 58.1657C175.365 64.3018 178.94 72.4479 179.702 83.2178L179.067 109.751C181.903 110.618 183.722 112.417 184.442 115.316C185.267 118.553 184.378 123.081 181.628 129.281C181.585 129.386 181.522 129.513 181.458 129.619L169.8 148.81C165.526 155.856 161.167 162.944 155.518 168.509C156.047 169.271 156.576 170.011 157.083 170.752C159.39 174.137 161.717 177.523 164.701 180.549C164.806 180.654 164.891 180.76 164.954 180.866C178.369 190.345 211.017 192.651 223.543 199.634L224.051 199.93C238.587 180.422 247.178 156.237 247.178 130.042C247.178 97.6904 234.059 68.3854 212.858 47.2054C191.699 25.9831 162.394 12.8646 130.042 12.8646C97.6904 12.8646 68.3854 25.9831 47.2054 47.1842C25.9619 68.3431 12.8434 97.6481 12.8434 130C12.8434 156.195 21.4339 180.379 35.9489 199.888Z" fill="black"/>
</g>
<defs>
<clipPath id="clip0_118_145">
<rect width="260" height="260" fill="white"/>
</clipPath>
</defs>
</svg>
