<svg xmlns="http://www.w3.org/2000/svg" xmlns:xlink="http://www.w3.org/1999/xlink" width="500" zoomAndPan="magnify" viewBox="0 0 375 374.999991" height="500" preserveAspectRatio="xMidYMid meet" version="1.0"><path fill="#228982" d="M 250.984375 253.671875 C 390.109375 146.664062 361.03125 54.859375 262.707031 46.902344 C 305.4375 39.578125 341.792969 47.652344 361.109375 72.816406 C 398.410156 121.417969 357.84375 215.269531 270.539062 282.421875 C 183.230469 349.570312 82.191406 364.617188 44.855469 316.015625 C 25.535156 290.847656 27.109375 253.589844 45.167969 214.167969 C 5.074219 324.40625 129.328125 347.128906 250.945312 253.632812 Z M 250.984375 253.671875 " fill-opacity="1" fill-rule="evenodd"/><path fill="#228982" d="M 148.332031 156.46875 C 150.613281 152.019531 158.089844 144.96875 164.464844 142.765625 L 163.636719 140.164062 L 160.566406 130.59375 L 177.132812 125.238281 L 181.222656 137.960938 C 184.53125 136.976562 189.644531 137.722656 192.398438 138 C 195.941406 138.394531 199.125 139.378906 202.117188 140.914062 C 207.859375 143.867188 213.410156 148.988281 216.164062 157.574219 L 198.144531 163.402344 C 197.160156 160.371094 195.230469 158.203125 193.34375 156.824219 C 192.042969 155.878906 188.148438 154.1875 186.457031 154.34375 L 193.816406 177.1875 C 196.410156 176.359375 202.746094 176.359375 205.144531 176.320312 C 208.453125 176.28125 212.738281 176.675781 215.613281 177.5 C 221.394531 179.15625 227.730469 184.117188 230.289062 192.035156 L 231.3125 195.183594 C 234.066406 203.730469 231.585938 211.332031 228.558594 216.964844 C 226.117188 221.453125 217.894531 229.054688 211.285156 231.339844 L 214.234375 240.554688 L 197.671875 245.910156 L 194.640625 236.5 C 184.214844 238.941406 171.308594 236.65625 163.519531 228.859375 C 161.160156 226.457031 158.523438 222.792969 157.144531 218.5 L 156.554688 216.648438 L 173.867188 211.058594 C 174.179688 210.9375 179.179688 217.671875 180.320312 218.539062 C 182.050781 219.800781 186.851562 221.453125 189.527344 220.628906 L 181.695312 196.328125 C 179.808594 196.878906 172.882812 196.917969 170.796875 196.878906 C 150.300781 196.679688 138.929688 174.785156 148.253906 156.429688 Z M 260.191406 233.464844 C 248.070312 192.113281 248.386719 133.234375 261.214844 56.867188 L 257.238281 56.550781 C 229.578125 68.644531 178.234375 91.171875 103.164062 124.058594 C 108.554688 193.804688 128.542969 249.613281 163.125 291.519531 C 192.714844 281.082031 221.003906 264.105469 244.886719 245.753906 C 249.921875 241.894531 255.035156 237.796875 260.191406 233.503906 Z M 260.191406 233.464844 " fill-opacity="1" fill-rule="evenodd"/><path fill="#5acdc6" d="M 93.996094 119.960938 C 53.351562 138.984375 93.996094 119.960938 215.925781 62.855469 L 211.914062 26.503906 L 56.144531 101.921875 C 56.816406 166.433594 78.925781 224.566406 122.640625 287.382812 C 71.410156 220.46875 44.972656 165.253906 43.59375 96.371094 C 1.296875 116.457031 43.59375 96.371094 170.445312 36.152344 L 164.265625 0.507812 L -0.0390625 68.523438 C 4.957031 107.988281 23.054688 158.085938 49.652344 205.226562 L 55.476562 215.269531 C 74.519531 247.210938 97.417969 277.300781 122.71875 301.167969 C 124.960938 300.890625 127.164062 300.617188 129.289062 300.261719 C 138.535156 298.765625 147.742188 296.519531 156.871094 293.566406 C 122.480469 255.246094 100.761719 199.753906 93.957031 119.960938 Z M 93.996094 119.960938 " fill-opacity="1" fill-rule="evenodd"/><path fill="#228982" d="M 163.753906 163.914062 C 160.527344 168.71875 162.769531 175.886719 168.199219 177.816406 C 169.421875 178.25 174.378906 178.683594 175.953125 178.328125 L 169.578125 158.636719 C 167.886719 159.34375 164.582031 162.691406 163.714844 163.953125 Z M 163.753906 163.914062 " fill-opacity="1" fill-rule="evenodd"/><path fill="#228982" d="M 199.597656 194.871094 L 206.328125 215.664062 C 209.355469 214.601562 211.285156 211.84375 212.699219 209.875 C 214.117188 207.90625 214.628906 204.320312 213.605469 201.132812 L 213.449219 200.582031 C 211.796875 195.460938 204.242188 194.476562 199.597656 194.871094 Z M 199.597656 194.871094 " fill-opacity="1" fill-rule="evenodd"/><path fill="#5acdc6" d="M 276.675781 290.375 C 255.824219 306.40625 232.253906 320.976562 207.429688 332.203125 C 210.96875 334.683594 214.628906 337.085938 218.367188 339.371094 C 214.15625 337.324219 210.023438 335.117188 206.011719 332.832031 C 198.222656 336.296875 190.273438 339.449219 182.246094 342.207031 C 229.5 362.960938 280.53125 357.09375 328.53125 303.847656 C 312.203125 300.183594 298.472656 292.859375 287.339844 281.910156 C 283.835938 284.824219 280.296875 287.660156 276.714844 290.417969 Z M 276.675781 290.375 " fill-opacity="1" fill-rule="evenodd"/><path fill="#d2d3d5" d="M 244.804688 378.992188 C 300.242188 378.992188 345.214844 376.707031 345.214844 373.832031 C 345.214844 370.996094 300.242188 368.710938 244.804688 368.710938 C 189.367188 368.710938 144.4375 370.996094 144.4375 373.832031 C 144.4375 376.667969 189.410156 378.992188 244.804688 378.992188 Z M 244.804688 378.992188 " fill-opacity="1" fill-rule="evenodd"/><path fill="#42bae1" d="M 147.859375 112.164062 C 135.703125 117.480469 123.542969 122.796875 111.386719 128.152344 C 112.449219 142.214844 114.21875 156.273438 116.738281 170.332031 C 116.855469 152.21875 117.996094 139.691406 120.160156 132.722656 C 126.574219 125.828125 135.78125 118.976562 147.859375 112.203125 Z M 147.859375 112.164062 " fill-opacity="1" fill-rule="evenodd"/></svg>